<mxfile host="app.diagrams.net" modified="2024-02-14T11:59:47.647Z" agent="Mozilla/5.0 (Windows NT 10.0; Win64; x64) AppleWebKit/537.36 (KHTML, like Gecko) Chrome/121.0.0.0 Safari/537.36" etag="ZAlOtAqvk4BH2gQbsvhr" version="23.1.4" type="device">
  <diagram id="C5RBs43oDa-KdzZeNtuy" name="Page-1">
    <mxGraphModel dx="1829" dy="1289" grid="1" gridSize="10" guides="1" tooltips="1" connect="1" arrows="1" fold="1" page="1" pageScale="1" pageWidth="827" pageHeight="1169" math="0" shadow="0">
      <root>
        <mxCell id="WIyWlLk6GJQsqaUBKTNV-0" />
        <mxCell id="WIyWlLk6GJQsqaUBKTNV-1" parent="WIyWlLk6GJQsqaUBKTNV-0" />
        <mxCell id="sQEFL_wM2q9QldxOpqfM-0" value="" style="rounded=0;whiteSpace=wrap;html=1;dashed=1;" vertex="1" parent="WIyWlLk6GJQsqaUBKTNV-1">
          <mxGeometry x="300" y="375" width="400" height="435" as="geometry" />
        </mxCell>
        <mxCell id="PA2yT26VtmElCOl-1Xhd-36" value="" style="rounded=0;whiteSpace=wrap;html=1;fillColor=none;" parent="WIyWlLk6GJQsqaUBKTNV-1" vertex="1">
          <mxGeometry x="-175" y="715" width="810" height="130" as="geometry" />
        </mxCell>
        <mxCell id="WIyWlLk6GJQsqaUBKTNV-2" value="" style="rounded=0;html=1;jettySize=auto;orthogonalLoop=1;fontSize=11;endArrow=block;endFill=0;endSize=8;strokeWidth=1;shadow=0;labelBackgroundColor=none;edgeStyle=orthogonalEdgeStyle;" parent="WIyWlLk6GJQsqaUBKTNV-1" source="WIyWlLk6GJQsqaUBKTNV-3" target="WIyWlLk6GJQsqaUBKTNV-6" edge="1">
          <mxGeometry relative="1" as="geometry" />
        </mxCell>
        <mxCell id="WIyWlLk6GJQsqaUBKTNV-3" value="roll dice" style="rounded=1;whiteSpace=wrap;html=1;fontSize=12;glass=0;strokeWidth=1;shadow=0;" parent="WIyWlLk6GJQsqaUBKTNV-1" vertex="1">
          <mxGeometry x="160" y="80" width="120" height="40" as="geometry" />
        </mxCell>
        <mxCell id="WIyWlLk6GJQsqaUBKTNV-4" value="Yes" style="rounded=0;html=1;jettySize=auto;orthogonalLoop=1;fontSize=11;endArrow=block;endFill=0;endSize=8;strokeWidth=1;shadow=0;labelBackgroundColor=none;edgeStyle=orthogonalEdgeStyle;" parent="WIyWlLk6GJQsqaUBKTNV-1" source="WIyWlLk6GJQsqaUBKTNV-6" target="WIyWlLk6GJQsqaUBKTNV-10" edge="1">
          <mxGeometry x="-0.3333" y="-10" relative="1" as="geometry">
            <mxPoint as="offset" />
          </mxGeometry>
        </mxCell>
        <mxCell id="WIyWlLk6GJQsqaUBKTNV-5" value="No" style="edgeStyle=orthogonalEdgeStyle;rounded=0;html=1;jettySize=auto;orthogonalLoop=1;fontSize=11;endArrow=block;endFill=0;endSize=8;strokeWidth=1;shadow=0;labelBackgroundColor=none;entryX=0.5;entryY=0;entryDx=0;entryDy=0;" parent="WIyWlLk6GJQsqaUBKTNV-1" source="WIyWlLk6GJQsqaUBKTNV-6" target="PA2yT26VtmElCOl-1Xhd-0" edge="1">
          <mxGeometry x="-0.4738" y="10" relative="1" as="geometry">
            <mxPoint as="offset" />
            <mxPoint x="354" y="210" as="targetPoint" />
          </mxGeometry>
        </mxCell>
        <mxCell id="WIyWlLk6GJQsqaUBKTNV-6" value="&lt;br&gt;Nums of dice &amp;gt; 1" style="rhombus;whiteSpace=wrap;html=1;shadow=0;fontFamily=Helvetica;fontSize=12;align=center;strokeWidth=1;spacing=6;spacingTop=-4;" parent="WIyWlLk6GJQsqaUBKTNV-1" vertex="1">
          <mxGeometry x="170" y="170" width="100" height="80" as="geometry" />
        </mxCell>
        <mxCell id="WIyWlLk6GJQsqaUBKTNV-9" value="Yes" style="edgeStyle=orthogonalEdgeStyle;rounded=0;html=1;jettySize=auto;orthogonalLoop=1;fontSize=11;endArrow=block;endFill=0;endSize=8;strokeWidth=1;shadow=0;labelBackgroundColor=none;exitX=0;exitY=0.5;exitDx=0;exitDy=0;" parent="WIyWlLk6GJQsqaUBKTNV-1" source="WIyWlLk6GJQsqaUBKTNV-10" target="WIyWlLk6GJQsqaUBKTNV-12" edge="1">
          <mxGeometry y="10" relative="1" as="geometry">
            <mxPoint as="offset" />
            <mxPoint x="70" y="360" as="sourcePoint" />
          </mxGeometry>
        </mxCell>
        <mxCell id="PA2yT26VtmElCOl-1Xhd-29" style="edgeStyle=orthogonalEdgeStyle;rounded=0;orthogonalLoop=1;jettySize=auto;html=1;exitX=0.5;exitY=1;exitDx=0;exitDy=0;" parent="WIyWlLk6GJQsqaUBKTNV-1" source="WIyWlLk6GJQsqaUBKTNV-10" target="PA2yT26VtmElCOl-1Xhd-27" edge="1">
          <mxGeometry relative="1" as="geometry" />
        </mxCell>
        <mxCell id="WIyWlLk6GJQsqaUBKTNV-10" value="&lt;br&gt;One dice has a&amp;nbsp;&lt;br&gt;value of 1?" style="rhombus;whiteSpace=wrap;html=1;shadow=0;fontFamily=Helvetica;fontSize=12;align=center;strokeWidth=1;spacing=6;spacingTop=-4;" parent="WIyWlLk6GJQsqaUBKTNV-1" vertex="1">
          <mxGeometry x="30" y="450" width="100" height="80" as="geometry" />
        </mxCell>
        <mxCell id="WIyWlLk6GJQsqaUBKTNV-12" value="Sow Sad:score for this turn&amp;nbsp; is 1" style="rounded=1;whiteSpace=wrap;html=1;fontSize=12;glass=0;strokeWidth=1;shadow=0;" parent="WIyWlLk6GJQsqaUBKTNV-1" vertex="1">
          <mxGeometry x="-140" y="760" width="120" height="40" as="geometry" />
        </mxCell>
        <mxCell id="PA2yT26VtmElCOl-1Xhd-3" style="edgeStyle=orthogonalEdgeStyle;rounded=0;orthogonalLoop=1;jettySize=auto;html=1;exitX=0;exitY=0.5;exitDx=0;exitDy=0;entryX=0.5;entryY=0;entryDx=0;entryDy=0;" parent="WIyWlLk6GJQsqaUBKTNV-1" source="PA2yT26VtmElCOl-1Xhd-0" target="PA2yT26VtmElCOl-1Xhd-1" edge="1">
          <mxGeometry relative="1" as="geometry" />
        </mxCell>
        <mxCell id="PA2yT26VtmElCOl-1Xhd-4" style="edgeStyle=orthogonalEdgeStyle;rounded=0;orthogonalLoop=1;jettySize=auto;html=1;exitX=1;exitY=0.5;exitDx=0;exitDy=0;entryX=0.5;entryY=0;entryDx=0;entryDy=0;" parent="WIyWlLk6GJQsqaUBKTNV-1" source="PA2yT26VtmElCOl-1Xhd-0" target="PA2yT26VtmElCOl-1Xhd-2" edge="1">
          <mxGeometry relative="1" as="geometry" />
        </mxCell>
        <mxCell id="PA2yT26VtmElCOl-1Xhd-0" value="&lt;br&gt;Nums of dice equals 0" style="rhombus;whiteSpace=wrap;html=1;shadow=0;fontFamily=Helvetica;fontSize=12;align=center;strokeWidth=1;spacing=6;spacingTop=-4;" parent="WIyWlLk6GJQsqaUBKTNV-1" vertex="1">
          <mxGeometry x="330" y="290" width="100" height="80" as="geometry" />
        </mxCell>
        <mxCell id="PA2yT26VtmElCOl-1Xhd-1" value="Normal score for this turn&amp;nbsp;" style="rounded=1;whiteSpace=wrap;html=1;fontSize=12;glass=0;strokeWidth=1;shadow=0;" parent="WIyWlLk6GJQsqaUBKTNV-1" vertex="1">
          <mxGeometry x="170" y="760" width="120" height="40" as="geometry" />
        </mxCell>
        <mxCell id="PA2yT26VtmElCOl-1Xhd-10" value="" style="edgeStyle=orthogonalEdgeStyle;rounded=0;orthogonalLoop=1;jettySize=auto;html=1;strokeColor=default;dashed=1;" parent="WIyWlLk6GJQsqaUBKTNV-1" source="PA2yT26VtmElCOl-1Xhd-2" target="PA2yT26VtmElCOl-1Xhd-9" edge="1">
          <mxGeometry relative="1" as="geometry" />
        </mxCell>
        <mxCell id="PA2yT26VtmElCOl-1Xhd-2" value="&amp;nbsp;Value A:Get tens digit of the opponent’s score" style="rounded=1;whiteSpace=wrap;html=1;fontSize=12;glass=0;strokeWidth=1;shadow=0;" parent="WIyWlLk6GJQsqaUBKTNV-1" vertex="1">
          <mxGeometry x="460" y="390" width="120" height="40" as="geometry" />
        </mxCell>
        <mxCell id="PA2yT26VtmElCOl-1Xhd-7" value="Yes" style="text;html=1;align=center;verticalAlign=middle;resizable=0;points=[];autosize=1;strokeColor=none;fillColor=none;" parent="WIyWlLk6GJQsqaUBKTNV-1" vertex="1">
          <mxGeometry x="440" y="300" width="40" height="30" as="geometry" />
        </mxCell>
        <mxCell id="PA2yT26VtmElCOl-1Xhd-8" value="No" style="text;html=1;align=center;verticalAlign=middle;resizable=0;points=[];autosize=1;strokeColor=none;fillColor=none;" parent="WIyWlLk6GJQsqaUBKTNV-1" vertex="1">
          <mxGeometry x="290" y="300" width="40" height="30" as="geometry" />
        </mxCell>
        <mxCell id="PA2yT26VtmElCOl-1Xhd-12" style="edgeStyle=orthogonalEdgeStyle;rounded=0;orthogonalLoop=1;jettySize=auto;html=1;exitX=0.5;exitY=1;exitDx=0;exitDy=0;entryX=0.5;entryY=0;entryDx=0;entryDy=0;dashed=1;" parent="WIyWlLk6GJQsqaUBKTNV-1" source="PA2yT26VtmElCOl-1Xhd-9" target="PA2yT26VtmElCOl-1Xhd-11" edge="1">
          <mxGeometry relative="1" as="geometry" />
        </mxCell>
        <mxCell id="PA2yT26VtmElCOl-1Xhd-9" value="value B:Get ones digit of the current player’s score" style="rounded=1;whiteSpace=wrap;html=1;fontSize=12;glass=0;strokeWidth=1;shadow=0;" parent="WIyWlLk6GJQsqaUBKTNV-1" vertex="1">
          <mxGeometry x="460" y="470" width="120" height="40" as="geometry" />
        </mxCell>
        <mxCell id="PA2yT26VtmElCOl-1Xhd-14" style="edgeStyle=orthogonalEdgeStyle;rounded=0;orthogonalLoop=1;jettySize=auto;html=1;entryX=0.5;entryY=0;entryDx=0;entryDy=0;" parent="WIyWlLk6GJQsqaUBKTNV-1" source="PA2yT26VtmElCOl-1Xhd-11" target="PA2yT26VtmElCOl-1Xhd-13" edge="1">
          <mxGeometry relative="1" as="geometry" />
        </mxCell>
        <mxCell id="PA2yT26VtmElCOl-1Xhd-11" value="Absolute difference between value A and value B" style="rounded=1;whiteSpace=wrap;html=1;fontSize=12;glass=0;strokeWidth=1;shadow=0;" parent="WIyWlLk6GJQsqaUBKTNV-1" vertex="1">
          <mxGeometry x="460" y="550" width="120" height="40" as="geometry" />
        </mxCell>
        <mxCell id="PA2yT26VtmElCOl-1Xhd-17" value="" style="edgeStyle=orthogonalEdgeStyle;rounded=0;orthogonalLoop=1;jettySize=auto;html=1;entryX=0.5;entryY=0;entryDx=0;entryDy=0;" parent="WIyWlLk6GJQsqaUBKTNV-1" source="PA2yT26VtmElCOl-1Xhd-13" target="PA2yT26VtmElCOl-1Xhd-21" edge="1">
          <mxGeometry relative="1" as="geometry">
            <mxPoint x="385" y="710" as="targetPoint" />
          </mxGeometry>
        </mxCell>
        <mxCell id="PA2yT26VtmElCOl-1Xhd-23" style="edgeStyle=orthogonalEdgeStyle;rounded=0;orthogonalLoop=1;jettySize=auto;html=1;exitX=0.5;exitY=1;exitDx=0;exitDy=0;entryX=0.5;entryY=0;entryDx=0;entryDy=0;" parent="WIyWlLk6GJQsqaUBKTNV-1" source="PA2yT26VtmElCOl-1Xhd-13" target="PA2yT26VtmElCOl-1Xhd-22" edge="1">
          <mxGeometry relative="1" as="geometry" />
        </mxCell>
        <mxCell id="PA2yT26VtmElCOl-1Xhd-13" value="Abs(A - B) ==&amp;nbsp; 0" style="rhombus;whiteSpace=wrap;html=1;shadow=0;fontFamily=Helvetica;fontSize=12;align=center;strokeWidth=1;spacing=6;spacingTop=-4;" parent="WIyWlLk6GJQsqaUBKTNV-1" vertex="1">
          <mxGeometry x="470" y="620" width="100" height="80" as="geometry" />
        </mxCell>
        <mxCell id="PA2yT26VtmElCOl-1Xhd-18" value="Yes" style="text;html=1;align=center;verticalAlign=middle;resizable=0;points=[];autosize=1;strokeColor=none;fillColor=none;" parent="WIyWlLk6GJQsqaUBKTNV-1" vertex="1">
          <mxGeometry x="394" y="630" width="40" height="30" as="geometry" />
        </mxCell>
        <mxCell id="PA2yT26VtmElCOl-1Xhd-19" style="edgeStyle=orthogonalEdgeStyle;rounded=0;orthogonalLoop=1;jettySize=auto;html=1;exitX=0.5;exitY=1;exitDx=0;exitDy=0;" parent="WIyWlLk6GJQsqaUBKTNV-1" edge="1">
          <mxGeometry relative="1" as="geometry">
            <mxPoint x="385" y="780" as="sourcePoint" />
            <mxPoint x="385" y="780" as="targetPoint" />
          </mxGeometry>
        </mxCell>
        <mxCell id="PA2yT26VtmElCOl-1Xhd-21" value="Score for this turn&amp;nbsp; is 1" style="rounded=1;whiteSpace=wrap;html=1;fontSize=12;glass=0;strokeWidth=1;shadow=0;" parent="WIyWlLk6GJQsqaUBKTNV-1" vertex="1">
          <mxGeometry x="314" y="760" width="120" height="40" as="geometry" />
        </mxCell>
        <mxCell id="PA2yT26VtmElCOl-1Xhd-22" value="Normal score for this turn&amp;nbsp;" style="rounded=1;whiteSpace=wrap;html=1;fontSize=12;glass=0;strokeWidth=1;shadow=0;" parent="WIyWlLk6GJQsqaUBKTNV-1" vertex="1">
          <mxGeometry x="460" y="760" width="120" height="40" as="geometry" />
        </mxCell>
        <mxCell id="PA2yT26VtmElCOl-1Xhd-24" value="No" style="text;html=1;align=center;verticalAlign=middle;resizable=0;points=[];autosize=1;strokeColor=none;fillColor=none;" parent="WIyWlLk6GJQsqaUBKTNV-1" vertex="1">
          <mxGeometry x="480" y="710" width="40" height="30" as="geometry" />
        </mxCell>
        <mxCell id="PA2yT26VtmElCOl-1Xhd-27" value="&amp;nbsp;Score of this turn is the sum of dice" style="rounded=1;whiteSpace=wrap;html=1;fontSize=12;glass=0;strokeWidth=1;shadow=0;" parent="WIyWlLk6GJQsqaUBKTNV-1" vertex="1">
          <mxGeometry x="20" y="760" width="120" height="40" as="geometry" />
        </mxCell>
        <mxCell id="PA2yT26VtmElCOl-1Xhd-30" value="No" style="text;html=1;align=center;verticalAlign=middle;resizable=0;points=[];autosize=1;strokeColor=none;fillColor=none;" parent="WIyWlLk6GJQsqaUBKTNV-1" vertex="1">
          <mxGeometry x="90" y="560" width="40" height="30" as="geometry" />
        </mxCell>
        <mxCell id="PA2yT26VtmElCOl-1Xhd-41" style="edgeStyle=orthogonalEdgeStyle;rounded=0;orthogonalLoop=1;jettySize=auto;html=1;exitX=0.5;exitY=1;exitDx=0;exitDy=0;entryX=0.5;entryY=0;entryDx=0;entryDy=0;" parent="WIyWlLk6GJQsqaUBKTNV-1" source="PA2yT26VtmElCOl-1Xhd-32" target="PA2yT26VtmElCOl-1Xhd-39" edge="1">
          <mxGeometry relative="1" as="geometry" />
        </mxCell>
        <mxCell id="PA2yT26VtmElCOl-1Xhd-32" value="Get current player&#39;s score =&amp;nbsp;The score of this turn + origin score of current player" style="rounded=1;whiteSpace=wrap;html=1;fontSize=12;glass=0;strokeWidth=1;shadow=0;" parent="WIyWlLk6GJQsqaUBKTNV-1" vertex="1">
          <mxGeometry x="150" y="890" width="160" height="80" as="geometry" />
        </mxCell>
        <mxCell id="PA2yT26VtmElCOl-1Xhd-40" style="edgeStyle=orthogonalEdgeStyle;rounded=0;orthogonalLoop=1;jettySize=auto;html=1;entryX=0.5;entryY=0;entryDx=0;entryDy=0;" parent="WIyWlLk6GJQsqaUBKTNV-1" source="PA2yT26VtmElCOl-1Xhd-37" target="PA2yT26VtmElCOl-1Xhd-32" edge="1">
          <mxGeometry relative="1" as="geometry">
            <mxPoint x="230" y="890" as="targetPoint" />
          </mxGeometry>
        </mxCell>
        <mxCell id="PA2yT26VtmElCOl-1Xhd-37" value="&lt;b&gt;&lt;i&gt;The score of this turn&amp;nbsp;&lt;/i&gt;&lt;/b&gt;" style="text;html=1;align=center;verticalAlign=middle;resizable=0;points=[];autosize=1;strokeColor=none;fillColor=none;" parent="WIyWlLk6GJQsqaUBKTNV-1" vertex="1">
          <mxGeometry x="155" y="815" width="150" height="30" as="geometry" />
        </mxCell>
        <mxCell id="PA2yT26VtmElCOl-1Xhd-43" style="edgeStyle=orthogonalEdgeStyle;rounded=0;orthogonalLoop=1;jettySize=auto;html=1;entryX=0.5;entryY=0;entryDx=0;entryDy=0;" parent="WIyWlLk6GJQsqaUBKTNV-1" source="PA2yT26VtmElCOl-1Xhd-39" target="PA2yT26VtmElCOl-1Xhd-42" edge="1">
          <mxGeometry relative="1" as="geometry" />
        </mxCell>
        <mxCell id="PA2yT26VtmElCOl-1Xhd-46" style="edgeStyle=orthogonalEdgeStyle;rounded=0;orthogonalLoop=1;jettySize=auto;html=1;exitX=0.5;exitY=1;exitDx=0;exitDy=0;entryX=0.5;entryY=0;entryDx=0;entryDy=0;" parent="WIyWlLk6GJQsqaUBKTNV-1" source="PA2yT26VtmElCOl-1Xhd-39" target="PA2yT26VtmElCOl-1Xhd-45" edge="1">
          <mxGeometry relative="1" as="geometry" />
        </mxCell>
        <mxCell id="PA2yT26VtmElCOl-1Xhd-39" value="Score is suss?" style="rhombus;whiteSpace=wrap;html=1;shadow=0;fontFamily=Helvetica;fontSize=12;align=center;strokeWidth=1;spacing=6;spacingTop=-4;" parent="WIyWlLk6GJQsqaUBKTNV-1" vertex="1">
          <mxGeometry x="180" y="1010" width="100" height="80" as="geometry" />
        </mxCell>
        <mxCell id="PA2yT26VtmElCOl-1Xhd-42" value="&amp;nbsp;Return Next Prime as Current player&#39;s score" style="rounded=1;whiteSpace=wrap;html=1;fontSize=12;glass=0;strokeWidth=1;shadow=0;" parent="WIyWlLk6GJQsqaUBKTNV-1" vertex="1">
          <mxGeometry x="350" y="1140" width="120" height="40" as="geometry" />
        </mxCell>
        <mxCell id="PA2yT26VtmElCOl-1Xhd-44" value="Yes" style="text;html=1;align=center;verticalAlign=middle;resizable=0;points=[];autosize=1;strokeColor=none;fillColor=none;" parent="WIyWlLk6GJQsqaUBKTNV-1" vertex="1">
          <mxGeometry x="320" y="1020" width="40" height="30" as="geometry" />
        </mxCell>
        <mxCell id="PA2yT26VtmElCOl-1Xhd-45" value="Return Normal current player&#39;s score" style="rounded=1;whiteSpace=wrap;html=1;fontSize=12;glass=0;strokeWidth=1;shadow=0;" parent="WIyWlLk6GJQsqaUBKTNV-1" vertex="1">
          <mxGeometry x="170" y="1140" width="120" height="40" as="geometry" />
        </mxCell>
        <mxCell id="PA2yT26VtmElCOl-1Xhd-47" value="No" style="text;html=1;align=center;verticalAlign=middle;resizable=0;points=[];autosize=1;strokeColor=none;fillColor=none;" parent="WIyWlLk6GJQsqaUBKTNV-1" vertex="1">
          <mxGeometry x="180" y="1090" width="40" height="30" as="geometry" />
        </mxCell>
        <mxCell id="sQEFL_wM2q9QldxOpqfM-1" value="&lt;b&gt;&lt;i&gt;boar brawl&lt;/i&gt;&lt;/b&gt;" style="text;html=1;align=center;verticalAlign=middle;resizable=0;points=[];autosize=1;strokeColor=none;fillColor=none;" vertex="1" parent="WIyWlLk6GJQsqaUBKTNV-1">
          <mxGeometry x="314" y="555" width="80" height="30" as="geometry" />
        </mxCell>
      </root>
    </mxGraphModel>
  </diagram>
</mxfile>
